<svg xmlns="http://www.w3.org/2000/svg" viewBox="0 0 1600 1100" role="img" aria-labelledby="title desc">
  <title id="title">Apartamento premium</title>
  <desc id="desc">Ilustracion de una vivienda vertical con balcones y luz natural.</desc>
  <defs>
    <linearGradient id="bg" x1="0" y1="0" x2="1" y2="1">
      <stop offset="0%" stop-color="#edf4ef"/>
      <stop offset="100%" stop-color="#f7e8d7"/>
    </linearGradient>
  </defs>
  <rect width="1600" height="1100" fill="url(#bg)"/>
  <circle cx="310" cy="190" r="96" fill="#f1c58d" opacity=".6"/>
  <rect x="380" y="170" width="820" height="720" rx="56" fill="#fffdf8"/>
  <rect x="470" y="240" width="640" height="580" rx="34" fill="#ddebe3"/>
  <g fill="#f9fbf7">
    <rect x="520" y="290" width="160" height="140" rx="18"/>
    <rect x="720" y="290" width="160" height="140" rx="18"/>
    <rect x="920" y="290" width="140" height="140" rx="18"/>
    <rect x="520" y="470" width="160" height="140" rx="18"/>
    <rect x="720" y="470" width="160" height="140" rx="18"/>
    <rect x="920" y="470" width="140" height="140" rx="18"/>
  </g>
  <g fill="#54735f">
    <rect x="520" y="446" width="160" height="18" rx="9"/>
    <rect x="720" y="446" width="160" height="18" rx="9"/>
    <rect x="920" y="446" width="140" height="18" rx="9"/>
    <rect x="520" y="626" width="160" height="18" rx="9"/>
    <rect x="720" y="626" width="160" height="18" rx="9"/>
    <rect x="920" y="626" width="140" height="18" rx="9"/>
  </g>
  <rect x="700" y="680" width="180" height="140" rx="22" fill="#f3d1a8"/>
  <rect x="748" y="718" width="84" height="102" rx="18" fill="#395949"/>
  <path d="M0 916c162-86 334-128 516-128 162 0 332 68 478 68 166 0 286-80 470-80 56 0 104 6 136 12v212H0Z" fill="#244637"/>
  <path d="M0 984c216-70 390-84 536-42 116 34 210 70 344 70 182 0 318-92 528-92 80 0 144 10 192 24v156H0Z" fill="#315d49"/>
</svg>
