<svg xmlns="http://www.w3.org/2000/svg" viewBox="0 0 1600 1100" role="img" aria-labelledby="title desc">
  <title id="title">Loft contemporaneo</title>
  <desc id="desc">Ilustracion minimalista de un loft con ventanales y estudio.</desc>
  <defs>
    <linearGradient id="bg" x1="0" y1="0" x2="1" y2="1">
      <stop offset="0%" stop-color="#f6efe5"/>
      <stop offset="100%" stop-color="#d8e7de"/>
    </linearGradient>
  </defs>
  <rect width="1600" height="1100" fill="url(#bg)"/>
  <rect x="230" y="210" width="1140" height="670" rx="44" fill="#fffaf4"/>
  <rect x="320" y="300" width="960" height="490" rx="28" fill="#ddeae2"/>
  <rect x="380" y="360" width="420" height="370" rx="24" fill="#fefbf6"/>
  <rect x="840" y="360" width="380" height="230" rx="24" fill="#f3cfaa"/>
  <rect x="840" y="626" width="380" height="104" rx="24" fill="#42604f"/>
  <rect x="460" y="450" width="180" height="150" rx="22" fill="#c7a17f"/>
  <rect x="930" y="420" width="120" height="132" rx="18" fill="#335542"/>
  <rect x="1080" y="420" width="80" height="132" rx="18" fill="#faf7f0"/>
  <circle cx="1220" cy="220" r="104" fill="#efc489" opacity=".6"/>
  <path d="M0 940c160-90 298-126 432-126 188 0 304 84 500 84 160 0 270-74 470-74 78 0 144 8 198 20v256H0Z" fill="#1f4435"/>
  <path d="M0 1000c180-64 346-76 492-36 116 30 230 64 384 64 170 0 286-82 518-82 70 0 138 10 206 26v128H0Z" fill="#2c5946"/>
</svg>
