<svg xmlns="http://www.w3.org/2000/svg" viewBox="0 0 1600 1100" role="img" aria-labelledby="title desc">
  <title id="title">Habitacion privada</title>
  <desc id="desc">Ilustracion acogedora de una habitacion privada con bano y escritorio.</desc>
  <defs>
    <linearGradient id="bg" x1="0" y1="0" x2="1" y2="1">
      <stop offset="0%" stop-color="#f7f0e5"/>
      <stop offset="100%" stop-color="#d9e7de"/>
    </linearGradient>
  </defs>
  <rect width="1600" height="1100" fill="url(#bg)"/>
  <rect x="300" y="200" width="1000" height="690" rx="50" fill="#fffbf6"/>
  <rect x="390" y="290" width="820" height="510" rx="30" fill="#e3ede6"/>
  <rect x="480" y="520" width="360" height="180" rx="28" fill="#f4d1ab"/>
  <rect x="520" y="468" width="300" height="72" rx="22" fill="#fff8ef"/>
  <rect x="930" y="380" width="190" height="220" rx="24" fill="#4a6a57"/>
  <rect x="950" y="404" width="90" height="172" rx="20" fill="#fefaf3"/>
  <rect x="610" y="420" width="92" height="86" rx="18" fill="#5e7f69"/>
  <rect x="720" y="420" width="74" height="86" rx="18" fill="#faf6ef"/>
  <circle cx="1210" cy="180" r="98" fill="#edbf84" opacity=".6"/>
  <path d="M0 944c162-68 334-102 514-102 138 0 246 26 376 58 80 20 160 28 250 28 172 0 280-58 470-58 72 0 136 8 190 20v210H0Z" fill="#1f4335"/>
  <path d="M0 1000c198-50 384-54 562-12 110 26 214 54 340 54 158 0 298-66 500-66 70 0 136 8 198 20v104H0Z" fill="#2d5947"/>
</svg>
