<svg xmlns="http://www.w3.org/2000/svg" viewBox="0 0 1600 1100" role="img" aria-labelledby="title desc">
  <title id="title">Studio funcional</title>
  <desc id="desc">Ilustracion compacta de un estudio luminoso con detalles suaves.</desc>
  <defs>
    <linearGradient id="bg" x1="0" y1="0" x2="1" y2="1">
      <stop offset="0%" stop-color="#f4ecdf"/>
      <stop offset="100%" stop-color="#dde9e2"/>
    </linearGradient>
  </defs>
  <rect width="1600" height="1100" fill="url(#bg)"/>
  <circle cx="300" cy="210" r="90" fill="#eebf86" opacity=".65"/>
  <rect x="330" y="220" width="940" height="640" rx="52" fill="#fffbf5"/>
  <rect x="420" y="300" width="760" height="500" rx="32" fill="#e1ece5"/>
  <rect x="500" y="380" width="250" height="210" rx="24" fill="#fcf8f1"/>
  <rect x="790" y="380" width="300" height="120" rx="20" fill="#f2d3ae"/>
  <rect x="790" y="532" width="300" height="160" rx="20" fill="#4c6c58"/>
  <rect x="560" y="650" width="420" height="68" rx="20" fill="#fff7ee"/>
  <rect x="560" y="732" width="300" height="18" rx="9" fill="#8ba793"/>
  <path d="M0 932c194-74 374-96 536-62 150 32 240 74 410 74 168 0 286-78 488-78 70 0 126 6 166 12v222H0Z" fill="#234839"/>
  <path d="M0 992c228-56 408-56 558 0 120 44 230 64 358 64 164 0 294-72 506-72 72 0 132 8 178 18v98H0Z" fill="#305b48"/>
</svg>
